<svg width="72" height="72" viewBox="0 0 72 72" fill="none" xmlns="http://www.w3.org/2000/svg">
<path opacity="0.12" d="M43.4588 51.9792L51.176 44.262C51.9675 43.4705 52.3633 43.0747 52.8199 42.9263C53.2216 42.7958 53.6543 42.7958 54.056 42.9263C54.5127 43.0747 54.9087 43.4707 55.7007 44.2627L65.0241 53.5862C64.7684 54.5223 64.4458 55.3727 64.0386 56.1718C62.3129 59.5587 59.5592 62.3124 56.1723 64.0381C56.0271 64.1121 55.8802 64.1833 55.7314 64.2518C51.9346 66 46.9013 66 37.2005 66H37.2005H34.8005C24.7195 66 19.679 66 15.8286 64.0381C12.4417 62.3124 9.68806 59.5587 7.96234 56.1718C7.83385 55.9197 7.71377 55.6624 7.60156 55.3989L24.7709 38.2296C25.5524 37.448 25.9432 37.0573 26.3947 36.9083C26.792 36.7773 27.2204 36.7741 27.6195 36.8993C28.0732 37.0415 28.4697 37.4265 29.2627 38.1964L43.4588 51.9792Z" fill="#A6A6A6"/>
<path d="M7.5 55.5L24.7704 38.2296C25.552 37.448 25.9427 37.0573 26.3943 36.9083C26.7916 36.7773 27.2199 36.7741 27.6191 36.8993C28.0728 37.0415 28.4693 37.4265 29.2623 38.1964L43.4584 51.9792M64.5 53.0625L55.7003 44.2627C54.9082 43.4707 54.5122 43.0747 54.0556 42.9263C53.6539 42.7958 53.2212 42.7958 52.8195 42.9263C52.3628 43.0747 51.9671 43.4705 51.1755 44.262C47.7606 47.6769 43.4584 51.9792 43.4584 51.9792M55.5 64.0208L43.4584 51.9792M54 27V18M54 18V9M54 18H45M54 18H63M36 6H34.5H15.6C12.2397 6 10.5595 6 9.27606 6.65396C8.14708 7.2292 7.2292 8.14708 6.65396 9.27606C6 10.5595 6 12.2397 6 15.6V56.4C6 59.7603 6 61.4405 6.65396 62.7239C7.2292 63.8529 8.14708 64.7708 9.27606 65.346C10.5595 66 12.2397 66 15.6 66H56.4C59.7603 66 61.4405 66 62.7239 65.346C63.8529 64.7708 64.7708 63.8529 65.346 62.7239C66 61.4405 66 59.7603 66 56.4V37.5V36" stroke="#A6A6A6" stroke-width="4" stroke-linecap="round" stroke-linejoin="round"/>
</svg>
